<svg width="1200" height="800" xmlns="http://www.w3.org/2000/svg">
  <defs>
    <linearGradient id="bg-gradient" x1="0%" y1="0%" x2="100%" y2="100%">
      <stop offset="0%" style="stop-color:#1a1a2e;stop-opacity:1" />
      <stop offset="100%" style="stop-color:#16213e;stop-opacity:1" />
    </linearGradient>
    <pattern id="grid" width="40" height="40" patternUnits="userSpaceOnUse">
      <path d="M 40 0 L 0 0 0 40" fill="none" stroke="#0f3460" stroke-width="0.5" opacity="0.3"/>
    </pattern>
  </defs>
  
  <!-- 背景 -->
  <rect width="100%" height="100%" fill="url(#bg-gradient)" />
  
  <!-- 网格 -->
  <rect width="100%" height="100%" fill="url(#grid)" />
  
  <!-- 随机星星 -->
  <g>
    <circle cx="120" cy="80" r="1" fill="#e94560" opacity="0.8" />
    <circle cx="320" cy="220" r="1.5" fill="#e94560" opacity="0.7" />
    <circle cx="520" cy="120" r="1" fill="#e94560" opacity="0.9" />
    <circle cx="780" cy="340" r="1.2" fill="#e94560" opacity="0.6" />
    <circle cx="950" cy="280" r="1" fill="#e94560" opacity="0.8" />
    <circle cx="1050" cy="480" r="1.5" fill="#e94560" opacity="0.7" />
    <circle cx="220" cy="520" r="1" fill="#e94560" opacity="0.9" />
    <circle cx="450" cy="650" r="1.2" fill="#e94560" opacity="0.6" />
    <circle cx="680" cy="520" r="1" fill="#e94560" opacity="0.8" />
    <circle cx="880" cy="720" r="1.5" fill="#e94560" opacity="0.7" />
    <circle cx="1150" cy="620" r="1" fill="#e94560" opacity="0.9" />
    <circle cx="380" cy="780" r="1.2" fill="#e94560" opacity="0.6" />
  </g>
  
  <!-- 地形痕迹 -->
  <path d="M0 600 Q 300 550, 600 650 T 1200 600" stroke="#0f3460" stroke-width="2" fill="none" opacity="0.4" />
  <path d="M0 650 Q 400 700, 800 600 T 1200 670" stroke="#0f3460" stroke-width="1.5" fill="none" opacity="0.3" />
  <path d="M0 700 Q 200 650, 400 750 T 1200 720" stroke="#0f3460" stroke-width="1" fill="none" opacity="0.2" />
</svg> 