<svg xmlns="http://www.w3.org/2000/svg" width="300" height="200" viewBox="0 0 300 200">
  <!-- Background rectangle -->
  <rect width="300" height="200" fill="#f5f5f5" rx="8" ry="8"/>
  
  <!-- Center decorative pattern -->
  <g transform="translate(150, 100)" stroke="#ddd" fill="none">
    <circle cx="0" cy="0" r="40" stroke-width="2"/>
    <circle cx="0" cy="0" r="50" stroke-width="1"/>
    <circle cx="0" cy="0" r="60" stroke-width="0.5"/>
  </g>
  
  <!-- Game controller icon -->
  <g transform="translate(120, 70) scale(0.07)">
    <path d="M250,762.2c-10.3,0-18.7-8.4-18.7-18.7V443.3c0-10.3,8.4-18.7,18.7-18.7h687.5c10.3,0,18.7,8.4,18.7,18.7v300.2c0,10.3-8.4,18.7-18.7,18.7L250,762.2L250,762.2z M268.7,724.8h650.1V462H268.7V724.8z" fill="#bbb"/>
    <path d="M643.7,350c-25.8,0-46.8-21-46.8-46.8c0-25.8,21-46.8,46.8-46.8c25.8,0,46.8,21,46.8,46.8C690.5,329,669.5,350,643.7,350z M643.7,293.5c-5.3,0-9.7,4.3-9.7,9.7c0,5.3,4.3,9.7,9.7,9.7c5.3,0,9.7-4.3,9.7-9.7C653.4,297.8,649.1,293.5,643.7,293.5z" fill="#bbb"/>
    <path d="M737.5,350c-25.8,0-46.8-21-46.8-46.8c0-25.8,21-46.8,46.8-46.8c25.8,0,46.8,21,46.8,46.8C784.3,329,763.3,350,737.5,350z M737.5,293.5c-5.3,0-9.7,4.3-9.7,9.7c0,5.3,4.3,9.7,9.7,9.7c5.3,0,9.7-4.3,9.7-9.7C747.2,297.8,742.9,293.5,737.5,293.5z" fill="#bbb"/>
    <path d="M831.3,350c-25.8,0-46.8-21-46.8-46.8c0-25.8,21-46.8,46.8-46.8s46.8,21,46.8,46.8C878.1,329,857.1,350,831.3,350z M831.3,293.5c-5.3,0-9.7,4.3-9.7,9.7c0,5.3,4.3,9.7,9.7,9.7s9.7-4.3,9.7-9.7C841,297.8,836.7,293.5,831.3,293.5z" fill="#bbb"/>
    <path d="M550,350c-25.8,0-46.8-21-46.8-46.8c0-25.8,21-46.8,46.8-46.8c25.8,0,46.8,21,46.8,46.8C596.8,329,575.8,350,550,350z M550,293.5c-5.3,0-9.7,4.3-9.7,9.7c0,5.3,4.3,9.7,9.7,9.7c5.3,0,9.7-4.3,9.7-9.7C559.7,297.8,555.3,293.5,550,293.5z" fill="#bbb"/>
    <path d="M418.7,593.5h-75v-75c0-10.3-8.4-18.7-18.7-18.7h-37.5c-10.3,0-18.7,8.4-18.7,18.7v75h-75c-10.3,0-18.7,8.4-18.7,18.7v37.5c0,10.3,8.4,18.7,18.7,18.7h75v75c0,10.3,8.4,18.7,18.7,18.7h37.5c10.3,0,18.7-8.4,18.7-18.7v-75h75c10.3,0,18.7-8.4,18.7-18.7v-37.5C437.4,601.9,429,593.5,418.7,593.5z" fill="#bbb"/>
    <path d="M831.3,593.5h-150c-10.3,0-18.7,8.4-18.7,18.7v37.5c0,10.3,8.4,18.7,18.7,18.7h150c10.3,0,18.7-8.4,18.7-18.7v-37.5C850,601.9,841.6,593.5,831.3,593.5z" fill="#bbb"/>
  </g>
  
  <!-- Loading text -->
  <text x="150" y="140" font-family="Arial, sans-serif" font-size="14" text-anchor="middle" fill="#888888">Loading game image...</text>
</svg> 